<svg width="500" height="500" viewBox="0 0 500 500" fill="none" xmlns="http://www.w3.org/2000/svg">
<path fill-rule="evenodd" clip-rule="evenodd" d="M0 250C0 111.929 111.929 0 250 0C388.07 0 500 111.929 500 250C500 388.07 388.07 500 250 500C111.929 500 0 388.07 0 250ZM342.677 182.322C352.44 192.085 352.44 207.915 342.677 217.677L250.607 309.748C236.465 323.89 213.535 323.89 199.392 309.748L157.322 267.677C147.559 257.915 147.559 242.085 157.322 232.323C167.085 222.56 182.915 222.56 192.678 232.323L225 264.645L307.323 182.322C317.085 172.559 332.915 172.559 342.677 182.322Z" fill="url(#paint0_linear_183_4)"/>
<defs>
<linearGradient id="paint0_linear_183_4" x1="500" y1="500" x2="0" y2="0" gradientUnits="userSpaceOnUse">
<stop stop-color="#FFA800"/>
<stop offset="1" stop-color="#FFEFB6"/>
</linearGradient>
</defs>
</svg>
